<svg width="200" height="40" viewBox="0 0 200 40" fill="none" xmlns="http://www.w3.org/2000/svg">
<g clip-path="url(#clip0_7_29862)">
<path fill-rule="evenodd" clip-rule="evenodd" d="M20 40C31.0458 40 40 31.0457 40 20C40 8.95431 31.0458 0 20 0C8.9543 0 0 8.95431 0 20C0 31.0457 8.9543 40 20 40ZM23.2593 12.2988C24.0082 12.8505 24.4321 13.6245 24.5309 14.6209H29.6543C29.6296 13.114 29.2263 11.7883 28.4444 10.6437C27.6626 9.49913 26.5679 8.6057 25.1605 7.96342C23.7613 7.32114 22.1235 7 20.2469 7C18.4033 7 16.7572 7.32114 15.3086 7.96342C13.8601 8.6057 12.7202 9.49913 11.8889 10.6437C11.0658 11.7883 10.6584 13.1264 10.6667 14.658C10.6584 16.5272 11.2716 18.0135 12.5062 19.1169C13.7407 20.2203 15.4239 21.0314 17.5556 21.5501L20.3086 22.2418C21.2305 22.4641 22.0082 22.7112 22.642 22.9829C23.284 23.2546 23.7695 23.584 24.0988 23.971C24.4362 24.358 24.6049 24.8356 24.6049 25.4038C24.6049 26.0131 24.4198 26.5525 24.0494 27.0219C23.679 27.4912 23.1564 27.8576 22.4815 28.1211C21.8148 28.3846 21.0288 28.5164 20.1235 28.5164C19.2016 28.5164 18.3745 28.3764 17.642 28.0964C16.9177 27.8082 16.3374 27.3842 15.9012 26.8242C15.4733 26.2561 15.2305 25.5479 15.1728 24.6998H10C10.0412 26.5196 10.4815 28.047 11.321 29.2822C12.1687 30.5091 13.3457 31.4355 14.8519 32.0613C16.3663 32.6871 18.144 33 20.1852 33C22.2428 33 24 32.6912 25.4568 32.0736C26.9218 31.4478 28.0412 30.5709 28.8148 29.4428C29.5967 28.3064 29.9918 26.9642 30 25.4162C29.9918 24.3622 29.7984 23.4276 29.4198 22.6124C29.0494 21.7971 28.5267 21.089 27.8519 20.4879C27.177 19.8868 26.3786 19.3804 25.4568 18.9686C24.535 18.5569 23.5226 18.2276 22.4198 17.9805L20.1481 17.4371C19.5967 17.3135 19.0782 17.1653 18.5926 16.9924C18.107 16.8112 17.679 16.6013 17.3086 16.3625C16.9383 16.1154 16.6461 15.8231 16.4321 15.4855C16.2263 15.1479 16.1317 14.7527 16.1481 14.2998C16.1481 13.7563 16.3045 13.2705 16.6173 12.8423C16.9383 12.4141 17.3992 12.0806 18 11.8418C18.6008 11.5948 19.3374 11.4713 20.2099 11.4713C21.4938 11.4713 22.5103 11.7471 23.2593 12.2988Z" fill="#F1F2FF"/>
<path d="M55.7046 27.6935C54.301 27.6935 53.1133 27.5073 52.1415 27.1348C51.1852 26.7468 50.4062 26.2425 49.8047 25.6217C49.2185 25.001 48.7789 24.3259 48.4859 23.5965C48.2082 22.8516 48.0463 22.1222 48 21.4083H51.6094C51.6402 21.967 51.8099 22.5024 52.1184 23.0145C52.4269 23.5267 52.8896 23.9457 53.5066 24.2716C54.1236 24.5975 54.8948 24.7604 55.8203 24.7604C56.8229 24.7604 57.5633 24.5587 58.0414 24.1552C58.535 23.7362 58.7818 23.193 58.7818 22.5257C58.7818 21.8894 58.5659 21.3695 58.134 20.9661C57.7175 20.5626 57.1622 20.2444 56.4681 20.0116L53.8536 19.1271C53.0207 18.8477 52.2186 18.5063 51.4474 18.1028C50.6916 17.6838 50.0669 17.1406 49.5733 16.4733C49.0797 15.7905 48.8329 14.9214 48.8329 13.8661C48.8329 12.7798 49.1029 11.8642 49.6427 11.1193C50.198 10.3744 50.9538 9.80795 51.9101 9.41998C52.8819 9.03201 53.9925 8.83802 55.2419 8.83802C56.846 8.83802 58.1108 9.1096 59.0363 9.65276C59.9618 10.1959 60.6328 10.8865 61.0492 11.7245C61.4811 12.547 61.7433 13.4083 61.8359 14.3084H58.2265C58.1957 13.8739 58.0723 13.4627 57.8563 13.0747C57.6558 12.6712 57.3319 12.3453 56.8846 12.097C56.4373 11.8487 55.8357 11.7245 55.0799 11.7245C54.2315 11.7245 53.5991 11.903 53.1827 12.2599C52.7816 12.6169 52.5811 13.0669 52.5811 13.6101C52.5811 14.1998 52.7893 14.6731 53.2058 15.0301C53.6377 15.387 54.2084 15.6896 54.9179 15.9379L57.5324 16.8225C58.3808 17.1018 59.1829 17.451 59.9387 17.87C60.6945 18.289 61.3115 18.8477 61.7896 19.5461C62.2832 20.2289 62.53 21.129 62.53 22.2464C62.53 23.9379 61.9284 25.2726 60.7253 26.2502C59.5376 27.2124 57.864 27.6935 55.7046 27.6935Z" fill="#F1F2FF"/>
<path d="M67.2409 27.3443C66.8861 26.9253 66.6008 26.4209 66.3848 25.8312C66.1843 25.2415 66.084 24.3569 66.084 23.1775V16.031H64.1868V13.3773H66.1303V9.88555H69.8091V13.3773H72.0534V16.031H69.8091V22.7818C69.8091 24.0078 69.9479 24.9467 70.2256 25.5984C70.5032 26.2502 70.8348 26.7856 71.2204 27.2047V27.3443H67.2409Z" fill="#F1F2FF"/>
<path d="M78.9391 27.6935C77.3967 27.6935 76.2321 27.2047 75.4455 26.227C74.6588 25.2493 74.2655 23.9224 74.2655 22.2464V13.3773H78.0137V21.6178C78.0137 22.5645 78.1833 23.3016 78.5227 23.8293C78.862 24.3569 79.4096 24.6208 80.1654 24.6208C81.0755 24.6208 81.7773 24.2638 82.2709 23.55C82.7645 22.8361 83.0112 21.9593 83.0112 20.9195V13.3773H86.7594V27.3443H83.3814V25.2493H82.8262C82.5948 25.9476 82.1706 26.5296 81.5536 26.9951C80.9366 27.4607 80.0651 27.6935 78.9391 27.6935Z" fill="#F1F2FF"/>
<path d="M94.8039 27.6237C93.539 27.6237 92.4979 27.3133 91.6804 26.6925C90.8629 26.0563 90.2536 25.1872 89.8525 24.0854C89.4515 22.9835 89.251 21.7342 89.251 20.3375C89.251 18.8943 89.4515 17.6295 89.8525 16.5432C90.269 15.4568 90.886 14.6111 91.7035 14.0058C92.5364 13.4006 93.5699 13.098 94.8039 13.098C95.7139 13.098 96.4543 13.2609 97.025 13.5868C97.6111 13.9127 98.0739 14.355 98.4132 14.9137H98.9685V8.72163H102.717V27.3443H99.2461V25.5286H98.6909C98.3669 26.1183 97.8965 26.6149 97.2795 27.0184C96.6625 27.4219 95.8373 27.6237 94.8039 27.6237ZM95.8682 24.9699C96.8091 24.9699 97.5571 24.5587 98.1124 23.7362C98.6831 22.8982 98.9685 21.773 98.9685 20.3608C98.9685 18.9331 98.6831 17.808 98.1124 16.9855C97.5571 16.1629 96.8091 15.7517 95.8682 15.7517C95.0198 15.7517 94.3488 16.1397 93.8552 16.9156C93.3771 17.676 93.138 18.8244 93.138 20.3608C93.138 21.8972 93.3771 23.0533 93.8552 23.8293C94.3488 24.5897 95.0198 24.9699 95.8682 24.9699Z" fill="#F1F2FF"/>
<path d="M107.002 32V31.9534C107.388 31.3172 107.805 30.58 108.252 29.742C108.699 28.904 109.092 28.1048 109.432 27.3443L104.666 13.517V13.3773H108.368L109.802 17.5674C110.033 18.2347 110.265 18.9486 110.496 19.709C110.727 20.4694 110.959 21.4316 111.19 22.5955H111.746C111.977 21.4316 112.208 20.4694 112.44 19.709C112.671 18.9486 112.902 18.2347 113.134 17.5674L114.568 13.3773H118.085V13.517L113.828 25.4355C113.273 27.0029 112.733 28.3375 112.208 29.4394C111.699 30.5567 111.267 31.4103 110.913 32H107.002Z" fill="#F1F2FF"/>
<path d="M120.075 27.3443V9.1872H126.785L132.384 24.2716H132.939V9.1872H136.456V27.3443H129.7L124.124 12.2599H123.592V27.3443H120.075Z" fill="#F1F2FF"/>
<path d="M145.853 27.6935C143.555 27.6935 141.835 27.0339 140.693 25.7148C139.567 24.3802 139.004 22.5955 139.004 20.3608C139.004 18.1261 139.567 16.3492 140.693 15.0301C141.835 13.6954 143.555 13.0281 145.853 13.0281C148.151 13.0281 149.863 13.6954 150.989 15.0301C152.131 16.3492 152.702 18.1261 152.702 20.3608C152.702 22.5955 152.131 24.3802 150.989 25.7148C149.863 27.0339 148.151 27.6935 145.853 27.6935ZM145.853 25.1794C146.871 25.1794 147.619 24.7759 148.097 23.969C148.575 23.162 148.814 21.9515 148.814 20.3375C148.814 18.7391 148.575 17.5441 148.097 16.7527C147.619 15.9457 146.871 15.5422 145.853 15.5422C144.835 15.5422 144.087 15.9457 143.609 16.7527C143.131 17.5441 142.891 18.7391 142.891 20.3375C142.891 21.9515 143.131 23.162 143.609 23.969C144.087 24.7759 144.835 25.1794 145.853 25.1794Z" fill="#F1F2FF"/>
<path d="M157.231 27.3443C156.876 26.9253 156.591 26.4209 156.375 25.8312C156.174 25.2415 156.074 24.3569 156.074 23.1775V16.031H154.177V13.3773H156.12V9.88555H159.799V13.3773H162.043V16.031H159.799V22.7818C159.799 24.0078 159.938 24.9467 160.216 25.5984C160.493 26.2502 160.825 26.7856 161.21 27.2047V27.3443H157.231Z" fill="#F1F2FF"/>
<path d="M164.441 27.3443V13.3773H168.189V27.3443H164.441ZM166.315 11.7711C165.651 11.7711 165.15 11.6004 164.811 11.259C164.471 10.902 164.302 10.4442 164.302 9.88555C164.302 9.32687 164.471 8.87682 164.811 8.5354C165.15 8.17847 165.651 8 166.315 8C166.978 8 167.479 8.17847 167.819 8.5354C168.158 8.87682 168.328 9.32687 168.328 9.88555C168.328 10.4442 168.158 10.902 167.819 11.259C167.479 11.6004 166.978 11.7711 166.315 11.7711Z" fill="#F1F2FF"/>
<path d="M177.549 27.6935C175.25 27.6935 173.531 27.0339 172.389 25.7148C171.263 24.3802 170.7 22.5955 170.7 20.3608C170.7 18.1261 171.263 16.3492 172.389 15.0301C173.531 13.6954 175.25 13.0281 177.549 13.0281C179.847 13.0281 181.559 13.6954 182.685 15.0301C183.827 16.3492 184.397 18.1261 184.397 20.3608C184.397 22.5955 183.827 24.3802 182.685 25.7148C181.559 27.0339 179.847 27.6935 177.549 27.6935ZM177.549 25.1794C178.567 25.1794 179.315 24.7759 179.793 23.969C180.271 23.162 180.51 21.9515 180.51 20.3375C180.51 18.7391 180.271 17.5441 179.793 16.7527C179.315 15.9457 178.567 15.5422 177.549 15.5422C176.531 15.5422 175.783 15.9457 175.304 16.7527C174.826 17.5441 174.587 18.7391 174.587 20.3375C174.587 21.9515 174.826 23.162 175.304 23.969C175.783 24.7759 176.531 25.1794 177.549 25.1794Z" fill="#F1F2FF"/>
<path d="M186.891 27.3443V13.3773H190.361V15.4724H190.916C191.194 14.774 191.618 14.192 192.189 13.7265C192.775 13.2609 193.631 13.0281 194.757 13.0281C196.3 13.0281 197.457 13.517 198.228 14.4947C198.999 15.4724 199.385 16.7992 199.385 18.4753V27.3443H195.636V19.1038C195.636 18.1416 195.467 17.4045 195.127 16.8923C194.788 16.3647 194.233 16.1009 193.462 16.1009C192.567 16.1009 191.873 16.4578 191.379 17.1717C190.886 17.87 190.639 18.7468 190.639 19.8021V27.3443H186.891Z" fill="#F1F2FF"/>
</g>
<defs>
<clipPath id="clip0_7_29862">
<rect width="200" height="40" fill="white"/>
</clipPath>
</defs>
</svg>
